<?xml version="1.0" standalone="no"?>
<!DOCTYPE svg PUBLIC "-//W3C//DTD SVG 20010904//EN"
 "http://www.w3.org/TR/2001/REC-SVG-20010904/DTD/svg10.dtd">
<svg version="1.0" xmlns="http://www.w3.org/2000/svg"
 width="48.000000pt" height="48.000000pt" viewBox="0 0 48.000000 48.000000"
 preserveAspectRatio="xMidYMid meet">
<metadata>
Created by potrace 1.15, written by Peter Selinger 2001-2017
</metadata>
<g transform="translate(0.000000,48.000000) scale(0.100000,-0.100000)"
fill="#000000" stroke="none">
<path d="M0 240 l0 -240 240 0 240 0 0 165 0 165 -180 0 c-103 0 -180 -4 -180
-9 0 -39 9 -41 152 -41 l140 0 -6 -32 c-4 -18 -9 -50 -13 -71 l-6 -37 -133 0
c-127 0 -134 1 -134 20 0 19 7 20 120 20 97 0 120 3 120 14 0 8 3 21 6 30 5
14 -10 16 -129 16 l-135 0 -11 50 c-19 87 -35 80 189 80 l200 0 0 55 0 55
-240 0 -240 0 0 -240z"/>
</g>
</svg>
